<?xml version="1.0" encoding="UTF-8"?><svg xmlns="http://www.w3.org/2000/svg" xmlns:xlink="http://www.w3.org/1999/xlink" height="500.0" preserveAspectRatio="xMidYMid meet" version="1.0" viewBox="0.0 0.0 500.0 500.0" width="500.0" zoomAndPan="magnify"><g id="change1_1"><path d="M500,239.7H303.6l182.3-73l-7.6-19.2l-185.4,74.2L434.1,80.5l-14.6-14.6L280.6,204.8l77.3-180.5L339,16.1 l-78.7,183.5V0h-20.6v196.4l-73-182.3l-19.2,7.6l74.2,185.4L80.5,65.9L65.9,80.5l138.9,138.9L24.3,142.1L16.1,161l183.5,78.7H0v20.6 h196.4l-182.3,73l7.6,19.2l185.4-74.2L65.9,419.5l14.6,14.6l138.9-138.9l-77.3,180.5l18.9,8.2l78.7-183.5V500h20.6V303.6l73,182.3 l19.2-7.6l-74.2-185.4l141.2,141.2l14.6-14.6L295.2,280.6l180.5,77.3l8.2-18.9l-183.5-78.7H500V239.7z" fill="#DAD9D8"/></g></svg>